<?xml version="1.0" encoding="UTF-8" standalone="no"?>
<!DOCTYPE svg PUBLIC "-//W3C//DTD SVG 1.1//EN"
 "http://www.w3.org/Graphics/SVG/1.1/DTD/svg11.dtd">
<!-- Generated by graphviz version 2.26.3 (20100126.1600)
 -->
<!-- Title: models_diagram Pages: 1 -->
<svg width="3094pt" height="514pt"
 viewBox="0.00 0.00 3094.00 514.00" xmlns="http://www.w3.org/2000/svg" xmlns:xlink="http://www.w3.org/1999/xlink">
<g id="graph1" class="graph" transform="scale(1 1) rotate(0) translate(4 510)">
<title>models_diagram</title>
<polygon fill="white" stroke="white" points="-4,5 -4,-510 3091,-510 3091,5 -4,5"/>
<!-- _diagram_info -->
<g id="node1" class="node"><title>_diagram_info</title>
<text text-anchor="start" x="720" y="-489.8" font-family="Times Roman,serif" font-size="13.00">Models diagram</text>
<text text-anchor="start" x="720" y="-472.8" font-family="Times Roman,serif" font-size="13.00">Date: Nov 26 2012 &#45; 04:28</text>
<text text-anchor="start" x="720" y="-455.8" font-family="Times Roman,serif" font-size="13.00">Migration version: 104</text>
<text text-anchor="start" x="720" y="-438.8" font-family="Times Roman,serif" font-size="13.00">Generated by RailRoady 1.1.0</text>
<text text-anchor="start" x="720" y="-421.8" font-family="Times Roman,serif" font-size="13.00">http://railroady.prestonlee.com</text>
</g>
<!-- Sidebar -->
<g id="node2" class="node"><title>Sidebar</title>
<ellipse fill="none" stroke="black" cx="988" cy="-459" rx="48.0833" ry="18.3848"/>
<text text-anchor="middle" x="988" y="-455.4" font-family="Times Roman,serif" font-size="14.00">Sidebar</text>
</g>
<!-- Theme -->
<g id="node3" class="node"><title>Theme</title>
<polygon fill="none" stroke="black" points="1118,-477 1054,-477 1054,-441 1118,-441 1118,-477"/>
<text text-anchor="middle" x="1086" y="-455.4" font-family="Times Roman,serif" font-size="14.00">Theme</text>
</g>
<!-- Feedback::States -->
<g id="node4" class="node"><title>Feedback::States</title>
<polygon fill="none" stroke="black" stroke-dasharray="1,5" points="1270,-477 1136,-477 1136,-441 1270,-441 1270,-477"/>
<text text-anchor="middle" x="1203" y="-455.4" font-family="Times Roman,serif" font-size="14.00">Feedback::States</text>
</g>
<!-- Redirect -->
<g id="node5" class="node"><title>Redirect</title>
<ellipse fill="none" stroke="black" cx="1339" cy="-459" rx="51.1176" ry="18.3848"/>
<text text-anchor="middle" x="1339" y="-455.4" font-family="Times Roman,serif" font-size="14.00">Redirect</text>
</g>
<!-- Content -->
<g id="node11" class="node"><title>Content</title>
<ellipse fill="none" stroke="black" cx="1226" cy="-355" rx="51.1176" ry="18.3848"/>
<text text-anchor="middle" x="1226" y="-351.4" font-family="Times Roman,serif" font-size="14.00">Content</text>
</g>
<!-- Redirect&#45;&gt;Content -->
<g id="edge4" class="edge"><title>Redirect&#45;&gt;Content</title>
<path fill="none" stroke="#09c17d" d="M1312.55,-434.659C1294.42,-417.969 1270.46,-395.917 1252.35,-379.247"/>
<polygon fill="#09c17d" stroke="#09c17d" points="1312.73,-434.821 1317.04,-444.904 1316.41,-438.207 1320.09,-441.593 1320.09,-441.593 1320.09,-441.593 1316.41,-438.207 1323.13,-438.282 1312.73,-434.821 1312.73,-434.821"/>
<polygon fill="#09c17d" stroke="#09c17d" points="1252.33,-379.236 1248.02,-369.153 1248.65,-375.85 1244.98,-372.464 1244.98,-372.464 1244.98,-372.464 1248.65,-375.85 1241.93,-375.775 1252.33,-379.236 1252.33,-379.236"/>
</g>
<!-- Redirection -->
<g id="node23" class="node"><title>Redirection</title>
<ellipse fill="none" stroke="black" cx="1408" cy="-263" rx="65.9683" ry="18.3848"/>
<text text-anchor="middle" x="1408" y="-259.4" font-family="Times Roman,serif" font-size="14.00">Redirection</text>
</g>
<!-- Redirect&#45;&gt;Redirection -->
<g id="edge2" class="edge"><title>Redirect&#45;&gt;Redirection</title>
<path fill="none" stroke="#105b4b" d="M1348.23,-432.778C1361.18,-395.998 1384.64,-329.351 1397.99,-291.421"/>
<ellipse fill="none" stroke="#105b4b" cx="1346.82" cy="-436.788" rx="4.00001" ry="4.00001"/>
<polygon fill="#105b4b" stroke="#105b4b" points="1398.15,-290.966 1405.72,-283.027 1399.82,-286.249 1401.48,-281.533 1401.48,-281.533 1401.48,-281.533 1399.82,-286.249 1397.23,-280.039 1398.15,-290.966 1398.15,-290.966"/>
</g>
<!-- Article -->
<g id="node6" class="node"><title>Article</title>
<ellipse fill="none" stroke="black" cx="697" cy="-187" rx="43.1335" ry="18.3848"/>
<text text-anchor="middle" x="697" y="-183.4" font-family="Times Roman,serif" font-size="14.00">Article</text>
</g>
<!-- Comment -->
<g id="node7" class="node"><title>Comment</title>
<ellipse fill="none" stroke="black" cx="501" cy="-19" rx="58.1882" ry="18.3848"/>
<text text-anchor="middle" x="501" y="-15.4" font-family="Times Roman,serif" font-size="14.00">Comment</text>
</g>
<!-- Article&#45;&gt;Comment -->
<g id="edge22" class="edge"><title>Article&#45;&gt;Comment</title>
<path fill="none" stroke="#082644" d="M646.927,-181.859C603.373,-174.536 542.316,-156.817 510,-114 495.892,-95.3076 494.62,-68.2923 496.31,-47.845"/>
<ellipse fill="none" stroke="#082644" cx="650.894" cy="-182.485" rx="4.00001" ry="4.00001"/>
<polygon fill="#082644" stroke="#082644" points="496.319,-47.7701 501.885,-38.3221 496.865,-42.8 497.412,-37.83 497.412,-37.83 497.412,-37.83 496.865,-42.8 492.939,-37.338 496.319,-47.7701 496.319,-47.7701"/>
<text text-anchor="middle" x="582" y="-91.4" font-family="Times Roman,serif" font-size="14.00">published_comments</text>
</g>
<!-- Article&#45;&gt;Comment -->
<g id="edge20" class="edge"><title>Article&#45;&gt;Comment</title>
<path fill="none" stroke="#8dcf52" d="M646.076,-184.589C556.949,-179.135 378.819,-162.309 344,-114 334.125,-100.299 334.307,-89.8307 344,-76 355.967,-58.9245 404.035,-43.0457 443.867,-32.4078"/>
<ellipse fill="none" stroke="#8dcf52" cx="650.162" cy="-184.831" rx="4" ry="4"/>
<polygon fill="#8dcf52" stroke="#8dcf52" points="444.113,-32.3436 454.925,-34.1729 448.951,-31.0811 453.789,-29.8187 453.789,-29.8187 453.789,-29.8187 448.951,-31.0811 452.653,-25.4645 444.113,-32.3436 444.113,-32.3436"/>
</g>
<!-- Feedback -->
<g id="node9" class="node"><title>Feedback</title>
<ellipse fill="none" stroke="black" cx="803" cy="-95" rx="56.0679" ry="18.3848"/>
<text text-anchor="middle" x="803" y="-91.4" font-family="Times Roman,serif" font-size="14.00">Feedback</text>
</g>
<!-- Article&#45;&gt;Feedback -->
<g id="edge26" class="edge"><title>Article&#45;&gt;Feedback</title>
<path fill="none" stroke="#94b685" d="M698.184,-160.439C699.841,-150.548 703.238,-139.833 710,-132 716.116,-124.915 733.552,-117.241 751.698,-110.729"/>
<ellipse fill="none" stroke="#94b685" cx="697.669" cy="-164.505" rx="4.00001" ry="4.00001"/>
<polygon fill="#94b685" stroke="#94b685" points="751.747,-110.712 762.669,-111.69 756.472,-109.075 761.196,-107.438 761.196,-107.438 761.196,-107.438 756.472,-109.075 759.723,-103.186 751.747,-110.712 751.747,-110.712"/>
<text text-anchor="middle" x="777" y="-137.4" font-family="Times Roman,serif" font-size="14.00">published_feedback</text>
</g>
<!-- Article&#45;&gt;Feedback -->
<g id="edge12" class="edge"><title>Article&#45;&gt;Feedback</title>
<path fill="none" stroke="#6ba3f6" d="M746.923,-181.397C785.915,-175.871 835.518,-165.91 848,-150 856.415,-139.274 849.181,-127.561 838.24,-117.71"/>
<ellipse fill="none" stroke="#6ba3f6" cx="742.744" cy="-181.968" rx="4.00001" ry="4.00001"/>
<polygon fill="#6ba3f6" stroke="#6ba3f6" points="837.996,-117.512 833.05,-107.725 834.108,-114.368 830.22,-111.223 830.22,-111.223 830.22,-111.223 834.108,-114.368 827.39,-114.722 837.996,-117.512 837.996,-117.512"/>
</g>
<!-- Tag -->
<g id="node12" class="node"><title>Tag</title>
<ellipse fill="none" stroke="black" cx="231" cy="-95" rx="27.7881" ry="18.3848"/>
<text text-anchor="middle" x="231" y="-91.4" font-family="Times Roman,serif" font-size="14.00">Tag</text>
</g>
<!-- Article&#45;&gt;Tag -->
<g id="edge28" class="edge"><title>Article&#45;&gt;Tag</title>
<path fill="none" stroke="#500c17" d="M643.626,-184.747C536.923,-179.895 304.76,-167.468 273,-150 261.239,-143.532 251.744,-132.234 244.778,-121.555"/>
<polygon fill="#500c17" stroke="#500c17" points="643.866,-184.757 653.654,-189.702 648.861,-184.982 653.856,-185.206 653.856,-185.206 653.856,-185.206 648.861,-184.982 654.058,-180.711 643.866,-184.757 643.866,-184.757"/>
<polygon fill="#500c17" stroke="#500c17" points="244.691,-121.411 243.379,-110.524 242.109,-117.13 239.526,-112.849 239.526,-112.849 239.526,-112.849 242.109,-117.13 235.673,-115.173 244.691,-121.411 244.691,-121.411"/>
</g>
<!-- Trackback -->
<g id="node16" class="node"><title>Trackback</title>
<ellipse fill="none" stroke="black" cx="887" cy="-19" rx="58.8978" ry="18.3848"/>
<text text-anchor="middle" x="887" y="-15.4" font-family="Times Roman,serif" font-size="14.00">Trackback</text>
</g>
<!-- Article&#45;&gt;Trackback -->
<g id="edge24" class="edge"><title>Article&#45;&gt;Trackback</title>
<path fill="none" stroke="#e73f86" d="M747.421,-182.217C795.623,-176.751 863.979,-166.381 885,-150 918.691,-123.746 914.587,-97.623 905,-56 904.262,-52.7979 903.209,-49.5519 901.976,-46.3812"/>
<ellipse fill="none" stroke="#e73f86" cx="743.246" cy="-182.678" rx="4.00001" ry="4.00001"/>
<polygon fill="#e73f86" stroke="#e73f86" points="901.96,-46.3441 901.989,-35.3783 899.92,-41.7791 897.881,-37.214 897.881,-37.214 897.881,-37.214 899.92,-41.7791 893.772,-39.0497 901.96,-46.3441 901.96,-46.3441"/>
<text text-anchor="middle" x="985.5" y="-91.4" font-family="Times Roman,serif" font-size="14.00">published_trackbacks</text>
</g>
<!-- Article&#45;&gt;Trackback -->
<g id="edge10" class="edge"><title>Article&#45;&gt;Trackback</title>
<path fill="none" stroke="#22390a" d="M747.427,-181.984C790.568,-176.626 848.137,-166.58 864,-150 889.874,-122.955 892.204,-77.6387 890.431,-48.0319"/>
<ellipse fill="none" stroke="#22390a" cx="743.253" cy="-182.486" rx="4.00001" ry="4.00001"/>
<polygon fill="#22390a" stroke="#22390a" points="890.418,-47.8666 894.114,-37.5424 890.023,-42.8822 889.628,-37.8978 889.628,-37.8978 889.628,-37.8978 890.023,-42.8822 885.142,-38.2532 890.418,-47.8666 890.418,-47.8666"/>
</g>
<!-- Category -->
<g id="node17" class="node"><title>Category</title>
<ellipse fill="none" stroke="black" cx="56" cy="-95" rx="56.0679" ry="18.3848"/>
<text text-anchor="middle" x="56" y="-91.4" font-family="Times Roman,serif" font-size="14.00">Category</text>
</g>
<!-- Article&#45;&gt;Category -->
<g id="edge18" class="edge"><title>Article&#45;&gt;Category</title>
<path fill="none" stroke="#b2fec5" d="M643.709,-185.918C559.473,-183.462 390.668,-175.513 250,-150 199.724,-140.881 143.714,-124.282 104.852,-111.696"/>
<polygon fill="#b2fec5" stroke="#b2fec5" points="643.804,-185.92 653.676,-190.695 648.802,-186.059 653.8,-186.197 653.8,-186.197 653.8,-186.197 648.802,-186.059 653.925,-181.699 643.804,-185.92 643.804,-185.92"/>
<polygon fill="#b2fec5" stroke="#b2fec5" points="104.365,-111.537 96.2607,-104.15 99.6131,-109.982 94.8611,-108.427 94.8611,-108.427 94.8611,-108.427 99.6131,-109.982 93.4615,-112.703 104.365,-111.537 104.365,-111.537"/>
</g>
<!-- Resource -->
<g id="node24" class="node"><title>Resource</title>
<ellipse fill="none" stroke="black" cx="409" cy="-95" rx="55.8614" ry="18.3848"/>
<text text-anchor="middle" x="409" y="-91.4" font-family="Times Roman,serif" font-size="14.00">Resource</text>
</g>
<!-- Article&#45;&gt;Resource -->
<g id="edge14" class="edge"><title>Article&#45;&gt;Resource</title>
<path fill="none" stroke="#046d72" d="M645.855,-184.254C602.215,-180.462 538.537,-171.443 487,-150 468.713,-142.391 450.496,-129.896 436.273,-118.737"/>
<ellipse fill="none" stroke="#046d72" cx="650.047" cy="-184.597" rx="4" ry="4"/>
<polygon fill="#046d72" stroke="#046d72" points="436.168,-118.652 431.217,-108.867 432.278,-115.51 428.389,-112.368 428.389,-112.368 428.389,-112.368 432.278,-115.51 425.561,-115.868 436.168,-118.652 436.168,-118.652"/>
</g>
<!-- Categorization -->
<g id="node27" class="node"><title>Categorization</title>
<ellipse fill="none" stroke="black" cx="275" cy="-19" rx="84.1457" ry="18.3848"/>
<text text-anchor="middle" x="275" y="-15.4" font-family="Times Roman,serif" font-size="14.00">Categorization</text>
</g>
<!-- Article&#45;&gt;Categorization -->
<g id="edge16" class="edge"><title>Article&#45;&gt;Categorization</title>
<path fill="none" stroke="#f76b00" d="M645.733,-185.737C565.041,-183.012 412.68,-174.676 365,-150 323.87,-128.714 297.986,-79.0319 285.036,-47.3362"/>
<ellipse fill="none" stroke="#f76b00" cx="649.788" cy="-185.868" rx="4" ry="4"/>
<polygon fill="#f76b00" stroke="#f76b00" points="284.924,-47.0498 285.474,-36.0977 283.104,-42.393 281.283,-37.7362 281.283,-37.7362 281.283,-37.7362 283.104,-42.393 277.092,-39.3747 284.924,-47.0498 284.924,-47.0498"/>
</g>
<!-- Trigger -->
<g id="node30" class="node"><title>Trigger</title>
<ellipse fill="none" stroke="black" cx="1228" cy="-95" rx="44.7575" ry="18.3848"/>
<text text-anchor="middle" x="1228" y="-91.4" font-family="Times Roman,serif" font-size="14.00">Trigger</text>
</g>
<!-- Article&#45;&gt;Trigger -->
<g id="edge6" class="edge"><title>Article&#45;&gt;Trigger</title>
<path fill="none" stroke="#395a7b" d="M745.421,-179.304C791.209,-171.972 861.825,-160.523 923,-150 1012.23,-134.652 1115.93,-115.719 1176.52,-104.544"/>
<ellipse fill="none" stroke="#395a7b" cx="741.4" cy="-179.948" rx="4.00001" ry="4.00001"/>
<polygon fill="#395a7b" stroke="#395a7b" points="1176.76,-104.5 1187.41,-107.11 1181.68,-103.592 1186.6,-102.685 1186.6,-102.685 1186.6,-102.685 1181.68,-103.592 1185.78,-98.2593 1176.76,-104.5 1176.76,-104.5"/>
</g>
<!-- Ping -->
<g id="node32" class="node"><title>Ping</title>
<ellipse fill="none" stroke="black" cx="696" cy="-95" rx="33.234" ry="18.3848"/>
<text text-anchor="middle" x="696" y="-91.4" font-family="Times Roman,serif" font-size="14.00">Ping</text>
</g>
<!-- Article&#45;&gt;Ping -->
<g id="edge8" class="edge"><title>Article&#45;&gt;Ping</title>
<path fill="none" stroke="#d5c3e9" d="M694.556,-160C694.327,-156.635 694.131,-153.24 694,-150 693.655,-141.475 693.794,-132.205 694.121,-123.747"/>
<ellipse fill="none" stroke="#d5c3e9" cx="694.876" cy="-164.207" rx="4" ry="4"/>
<polygon fill="#d5c3e9" stroke="#d5c3e9" points="694.13,-123.574 699.109,-113.804 694.372,-118.58 694.614,-113.586 694.614,-113.586 694.614,-113.586 694.372,-118.58 690.12,-113.368 694.13,-123.574 694.13,-123.574"/>
</g>
<!-- Page -->
<g id="node8" class="node"><title>Page</title>
<ellipse fill="none" stroke="black" cx="1251" cy="-263" rx="34.8574" ry="18.3848"/>
<text text-anchor="middle" x="1251" y="-259.4" font-family="Times Roman,serif" font-size="14.00">Page</text>
</g>
<!-- Feedback&#45;&gt;Comment -->
<g id="edge32" class="edge"><title>Feedback&#45;&gt;Comment</title>
<path fill="none" stroke="black" d="M761.473,-82.537C753.692,-80.2939 745.612,-78.0266 738,-76 672.569,-58.5796 596.348,-40.669 548.384,-29.6859"/>
</g>
<!-- Feedback&#45;&gt;Trackback -->
<g id="edge54" class="edge"><title>Feedback&#45;&gt;Trackback</title>
<path fill="none" stroke="black" d="M822.482,-77.373C836.053,-65.0951 854.076,-48.7884 867.623,-36.5314"/>
</g>
<!-- ConfigManager -->
<g id="node10" class="node"><title>ConfigManager</title>
<polygon fill="none" stroke="black" stroke-dasharray="1,5" points="1528,-477 1408,-477 1408,-441 1528,-441 1528,-477"/>
<text text-anchor="middle" x="1468" y="-455.4" font-family="Times Roman,serif" font-size="14.00">ConfigManager</text>
</g>
<!-- Content&#45;&gt;Article -->
<g id="edge30" class="edge"><title>Content&#45;&gt;Article</title>
<path fill="none" stroke="black" d="M1176.38,-350.487C1108.24,-343.932 989.428,-331.119 948,-318 858.73,-289.732 763.329,-230.994 720.354,-202.787"/>
</g>
<!-- Content&#45;&gt;Page -->
<g id="edge34" class="edge"><title>Content&#45;&gt;Page</title>
<path fill="none" stroke="black" d="M1231.63,-336.598C1233.4,-330.674 1235.33,-324.073 1237,-318 1240.35,-305.842 1243.85,-292.092 1246.51,-281.381"/>
</g>
<!-- Content&#45;&gt;Feedback -->
<g id="edge36" class="edge"><title>Content&#45;&gt;Feedback</title>
<path fill="none" stroke="black" d="M1175.69,-351.856C1115.53,-347.296 1019.17,-337.207 989,-318 904.984,-264.506 936.046,-200.772 864,-132 855.309,-123.704 844.447,-116.383 834.306,-110.489"/>
</g>
<!-- User -->
<g id="node14" class="node"><title>User</title>
<ellipse fill="none" stroke="black" cx="1033" cy="-263" rx="33.9411" ry="18.3848"/>
<text text-anchor="middle" x="1033" y="-259.4" font-family="Times Roman,serif" font-size="14.00">User</text>
</g>
<!-- Content&#45;&gt;User -->
<g id="edge40" class="edge"><title>Content&#45;&gt;User</title>
<path fill="none" stroke="#fa252b" d="M1166.25,-349.39C1101.83,-342.725 1006.97,-330.876 996,-318 987.207,-307.68 994.344,-295.21 1004.61,-284.755"/>
<polygon fill="#fa252b" stroke="#fa252b" points="1166.36,-349.401 1175.85,-354.891 1171.34,-349.908 1176.31,-350.414 1176.31,-350.414 1176.31,-350.414 1171.34,-349.908 1176.77,-345.937 1166.36,-349.401 1166.36,-349.401"/>
<polygon fill="#fa252b" stroke="#fa252b" points="1004.71,-284.666 1015.11,-281.199 1008.38,-281.278 1012.06,-277.89 1012.06,-277.89 1012.06,-277.89 1008.38,-281.278 1009.01,-274.58 1004.71,-284.666 1004.71,-284.666"/>
<text text-anchor="middle" x="1038.5" y="-305.4" font-family="Times Roman,serif" font-size="14.00">notify_users</text>
</g>
<!-- Notification -->
<g id="node18" class="node"><title>Notification</title>
<ellipse fill="none" stroke="black" cx="1122" cy="-187" rx="67.1751" ry="18.3848"/>
<text text-anchor="middle" x="1122" y="-183.4" font-family="Times Roman,serif" font-size="14.00">Notification</text>
</g>
<!-- Content&#45;&gt;Notification -->
<g id="edge38" class="edge"><title>Content&#45;&gt;Notification</title>
<path fill="none" stroke="#62c5c0" d="M1221.66,-328.604C1219.51,-319.261 1216.41,-308.873 1212,-300 1195.41,-266.59 1167.72,-233.858 1147.42,-212.295"/>
<ellipse fill="none" stroke="#62c5c0" cx="1222.49" cy="-332.567" rx="4.00001" ry="4.00001"/>
<polygon fill="#62c5c0" stroke="#62c5c0" points="1147.23,-212.096 1143.57,-201.762 1143.77,-208.486 1140.32,-204.875 1140.32,-204.875 1140.32,-204.875 1143.77,-208.486 1137.07,-207.988 1147.23,-212.096 1147.23,-212.096"/>
</g>
<!-- Content&#45;&gt;Redirection -->
<g id="edge42" class="edge"><title>Content&#45;&gt;Redirection</title>
<path fill="none" stroke="#818b0d" d="M1273.61,-340.541C1291.12,-334.498 1310.86,-326.818 1328,-318 1345.29,-309.105 1363.24,-297.059 1377.75,-286.507"/>
<ellipse fill="none" stroke="#818b0d" cx="1269.52" cy="-341.921" rx="4.00001" ry="4.00001"/>
<polygon fill="#818b0d" stroke="#818b0d" points="1377.82,-286.452 1388.54,-284.119 1381.84,-283.477 1385.86,-280.502 1385.86,-280.502 1385.86,-280.502 1381.84,-283.477 1383.18,-276.885 1377.82,-286.452 1377.82,-286.452"/>
</g>
<!-- Content&#45;&gt;Trigger -->
<g id="edge44" class="edge"><title>Content&#45;&gt;Trigger</title>
<path fill="none" stroke="#fda48a" d="M1255.34,-333.168C1270.27,-320.17 1286.93,-302.275 1295,-282 1317.66,-225.042 1276.55,-157.027 1249.3,-120.769"/>
<ellipse fill="none" stroke="#fda48a" cx="1252.14" cy="-335.857" rx="4.00002" ry="4.00002"/>
<polygon fill="#fda48a" stroke="#fda48a" points="1249.17,-120.597 1246.62,-109.932 1246.11,-116.64 1243.06,-112.683 1243.06,-112.683 1243.06,-112.683 1246.11,-116.64 1239.5,-115.434 1249.17,-120.597 1249.17,-120.597"/>
</g>
<!-- PageCache -->
<g id="node13" class="node"><title>PageCache</title>
<polygon fill="none" stroke="black" points="1638,-477 1546,-477 1546,-441 1638,-441 1638,-477"/>
<text text-anchor="middle" x="1592" y="-455.4" font-family="Times Roman,serif" font-size="14.00">PageCache</text>
</g>
<!-- User&#45;&gt;Article -->
<g id="edge50" class="edge"><title>User&#45;&gt;Article</title>
<path fill="none" stroke="#6ace01" d="M993.391,-254.041C931.428,-240.025 811.765,-212.959 744.999,-197.857"/>
<ellipse fill="none" stroke="#6ace01" cx="997.488" cy="-254.968" rx="4.00001" ry="4.00001"/>
<polygon fill="#6ace01" stroke="#6ace01" points="744.903,-197.835 736.142,-191.24 740.026,-196.732 735.149,-195.629 735.149,-195.629 735.149,-195.629 740.026,-196.732 734.157,-200.018 744.903,-197.835 744.903,-197.835"/>
</g>
<!-- User&#45;&gt;Content -->
<g id="edge48" class="edge"><title>User&#45;&gt;Content</title>
<path fill="none" stroke="#dd1f99" d="M1061.11,-284.615C1067.65,-289.655 1074.57,-295.008 1081,-300 1091.25,-307.962 1092.48,-312.014 1104,-318 1125.12,-328.975 1150.02,-337.258 1171.8,-343.174"/>
<polygon fill="#dd1f99" stroke="#dd1f99" points="1061.03,-284.552 1055.86,-274.884 1057.07,-281.501 1053.11,-278.449 1053.11,-278.449 1053.11,-278.449 1057.07,-281.501 1050.36,-282.014 1061.03,-284.552 1061.03,-284.552"/>
<polygon fill="#dd1f99" stroke="#dd1f99" points="1171.89,-343.197 1180.43,-350.081 1176.73,-344.462 1181.57,-345.727 1181.57,-345.727 1181.57,-345.727 1176.73,-344.462 1182.7,-341.374 1171.89,-343.197 1171.89,-343.197"/>
<text text-anchor="middle" x="1158" y="-305.4" font-family="Times Roman,serif" font-size="14.00">notify_contents</text>
</g>
<!-- User&#45;&gt;Notification -->
<g id="edge46" class="edge"><title>User&#45;&gt;Notification</title>
<path fill="none" stroke="#e09086" d="M1057.85,-241.782C1068.91,-232.336 1082,-221.159 1093.46,-211.373"/>
<ellipse fill="none" stroke="#e09086" cx="1054.48" cy="-244.655" rx="4.00002" ry="4.00002"/>
<polygon fill="#e09086" stroke="#e09086" points="1093.48,-211.351 1104.01,-208.28 1097.29,-208.105 1101.09,-204.858 1101.09,-204.858 1101.09,-204.858 1097.29,-208.105 1098.17,-201.436 1093.48,-211.351 1093.48,-211.351"/>
</g>
<!-- NotificationMailer -->
<g id="node15" class="node"><title>NotificationMailer</title>
<polygon fill="none" stroke="black" points="1826,-373 1690,-373 1690,-337 1826,-337 1826,-373"/>
<text text-anchor="middle" x="1758" y="-351.4" font-family="Times Roman,serif" font-size="14.00">NotificationMailer</text>
</g>
<!-- Category&#45;&gt;Category -->
<g id="edge56" class="edge"><title>Category&#45;&gt;Category</title>
<path fill="none" stroke="#08b998" d="M115.921,-101.381C124.351,-100.341 130,-98.2146 130,-95 130,-92.0776 125.332,-90.0542 118.149,-88.9298"/>
<ellipse fill="none" stroke="#08b998" cx="111.856" cy="-101.7" rx="4" ry="4"/>
<polygon fill="#08b998" stroke="#08b998" points="117.827,-88.9003 108.28,-83.5052 112.848,-88.4433 107.869,-87.9863 107.869,-87.9863 107.869,-87.9863 112.848,-88.4433 107.457,-92.4675 117.827,-88.9003 117.827,-88.9003"/>
<text text-anchor="middle" x="157.5" y="-91.4" font-family="Times Roman,serif" font-size="14.00">children</text>
</g>
<!-- Category&#45;&gt;Categorization -->
<g id="edge58" class="edge"><title>Category&#45;&gt;Categorization</title>
<path fill="none" stroke="#6554a7" d="M102.434,-78.886C136.954,-66.9063 184.162,-50.5237 220.477,-37.9214"/>
<ellipse fill="none" stroke="#6554a7" cx="98.4276" cy="-80.2762" rx="4.00001" ry="4.00001"/>
<polygon fill="#6554a7" stroke="#6554a7" points="220.487,-37.9179 231.41,-38.8906 225.211,-36.2786 229.934,-34.6393 229.934,-34.6393 229.934,-34.6393 225.211,-36.2786 228.459,-30.388 220.487,-37.9179 220.487,-37.9179"/>
</g>
<!-- Blog -->
<g id="node19" class="node"><title>Blog</title>
<ellipse fill="none" stroke="black" cx="1911" cy="-459" rx="33.234" ry="18.3848"/>
<text text-anchor="middle" x="1911" y="-455.4" font-family="Times Roman,serif" font-size="14.00">Blog</text>
</g>
<!-- EmailNotifier -->
<g id="node20" class="node"><title>EmailNotifier</title>
<polygon fill="none" stroke="black" points="2081,-373 1977,-373 1977,-337 2081,-337 2081,-373"/>
<text text-anchor="middle" x="2029" y="-351.4" font-family="Times Roman,serif" font-size="14.00">EmailNotifier</text>
</g>
<!-- PostType -->
<g id="node21" class="node"><title>PostType</title>
<ellipse fill="none" stroke="black" cx="2286" cy="-459" rx="53.9477" ry="18.3848"/>
<text text-anchor="middle" x="2286" y="-455.4" font-family="Times Roman,serif" font-size="14.00">PostType</text>
</g>
<!-- Profile -->
<g id="node22" class="node"><title>Profile</title>
<ellipse fill="none" stroke="black" cx="2395" cy="-355" rx="41.9273" ry="18.3848"/>
<text text-anchor="middle" x="2395" y="-351.4" font-family="Times Roman,serif" font-size="14.00">Profile</text>
</g>
<!-- WebNotifier -->
<g id="node25" class="node"><title>WebNotifier</title>
<polygon fill="none" stroke="black" points="2197,-373 2099,-373 2099,-337 2197,-337 2197,-373"/>
<text text-anchor="middle" x="2148" y="-351.4" font-family="Times Roman,serif" font-size="14.00">WebNotifier</text>
</g>
<!-- Article::States -->
<g id="node26" class="node"><title>Article::States</title>
<polygon fill="none" stroke="black" stroke-dasharray="1,5" points="2564,-477 2450,-477 2450,-441 2564,-441 2564,-477"/>
<text text-anchor="middle" x="2507" y="-455.4" font-family="Times Roman,serif" font-size="14.00">Article::States</text>
</g>
<!-- Right -->
<g id="node28" class="node"><title>Right</title>
<ellipse fill="none" stroke="black" cx="2395" cy="-459" rx="36.977" ry="18.3848"/>
<text text-anchor="middle" x="2395" y="-455.4" font-family="Times Roman,serif" font-size="14.00">Right</text>
</g>
<!-- Right&#45;&gt;Profile -->
<g id="edge64" class="edge"><title>Right&#45;&gt;Profile</title>
<path fill="none" stroke="#212761" d="M2395,-430.166C2395,-415.816 2395,-398.508 2395,-384.119"/>
<polygon fill="#212761" stroke="#212761" points="2395,-430.407 2390.5,-440.407 2395,-435.407 2395,-440.407 2395,-440.407 2395,-440.407 2395,-435.407 2399.5,-440.407 2395,-430.407 2395,-430.407"/>
<polygon fill="#212761" stroke="#212761" points="2395,-383.783 2399.5,-373.783 2395,-378.783 2395,-373.783 2395,-373.783 2395,-373.783 2395,-378.783 2390.5,-373.783 2395,-383.783 2395,-383.783"/>
</g>
<!-- BlogSweeper -->
<g id="node29" class="node"><title>BlogSweeper</title>
<polygon fill="none" stroke="black" points="2821,-373 2715,-373 2715,-337 2821,-337 2821,-373"/>
<text text-anchor="middle" x="2768" y="-351.4" font-family="Times Roman,serif" font-size="14.00">BlogSweeper</text>
</g>
<!-- TextFilter -->
<g id="node31" class="node"><title>TextFilter</title>
<ellipse fill="none" stroke="black" cx="3029" cy="-459" rx="56.7776" ry="18.3848"/>
<text text-anchor="middle" x="3029" y="-455.4" font-family="Times Roman,serif" font-size="14.00">TextFilter</text>
</g>
<!-- ActionMailer::Base -->
<g id="node58" class="node"><title>ActionMailer::Base</title>
<ellipse fill="none" stroke="black" cx="1758" cy="-459" rx="101.823" ry="18.3848"/>
<text text-anchor="middle" x="1758" y="-455.4" font-family="Times Roman,serif" font-size="14.00">ActionMailer::Base</text>
</g>
<!-- ActionMailer::Base&#45;&gt;NotificationMailer -->
<g id="edge52" class="edge"><title>ActionMailer::Base&#45;&gt;NotificationMailer</title>
<path fill="none" stroke="black" d="M1758,-440.407C1758,-421.36 1758,-391.943 1758,-373.084"/>
</g>
<!-- ActiveRecord::Observer -->
<g id="node63" class="node"><title>ActiveRecord::Observer</title>
<ellipse fill="none" stroke="black" cx="2088" cy="-459" rx="125.865" ry="18.3848"/>
<text text-anchor="middle" x="2088" y="-455.4" font-family="Times Roman,serif" font-size="14.00">ActiveRecord::Observer</text>
</g>
<!-- ActiveRecord::Observer&#45;&gt;EmailNotifier -->
<g id="edge60" class="edge"><title>ActiveRecord::Observer&#45;&gt;EmailNotifier</title>
<path fill="none" stroke="black" d="M2077.45,-440.407C2066.65,-421.36 2049.96,-391.943 2039.26,-373.084"/>
</g>
<!-- ActiveRecord::Observer&#45;&gt;WebNotifier -->
<g id="edge62" class="edge"><title>ActiveRecord::Observer&#45;&gt;WebNotifier</title>
<path fill="none" stroke="black" d="M2098.73,-440.407C2109.72,-421.36 2126.69,-391.943 2137.57,-373.084"/>
</g>
<!-- ActionController::Caching::Sweeper -->
<g id="node67" class="node"><title>ActionController::Caching::Sweeper</title>
<ellipse fill="none" stroke="black" cx="2768" cy="-459" rx="185.969" ry="18.3848"/>
<text text-anchor="middle" x="2768" y="-455.4" font-family="Times Roman,serif" font-size="14.00">ActionController::Caching::Sweeper</text>
</g>
<!-- ActionController::Caching::Sweeper&#45;&gt;BlogSweeper -->
<g id="edge66" class="edge"><title>ActionController::Caching::Sweeper&#45;&gt;BlogSweeper</title>
<path fill="none" stroke="black" d="M2768,-440.407C2768,-421.36 2768,-391.943 2768,-373.084"/>
</g>
</g>
</svg>
